<svg width="38" height="29" viewBox="0 0 38 29" fill="none" xmlns="http://www.w3.org/2000/svg">
<path d="M18.4024 14.8738C18.6017 15.1444 18.7255 15.0932 18.6761 14.7607L18.2242 11.7238C18.2139 11.6464 18.1873 11.572 18.1463 11.5055C18.1052 11.439 18.0507 11.3819 17.9861 11.338C17.9215 11.294 17.8484 11.2641 17.7715 11.2502C17.6947 11.2364 17.6157 11.2389 17.5399 11.2576C17.5399 11.2576 17.4592 11.2763 17.1286 11.4126C16.798 11.5501 16.7292 11.5938 16.7292 11.5938C16.6623 11.6341 16.6046 11.6882 16.5599 11.7523C16.5153 11.8165 16.4847 11.8894 16.4701 11.9662C16.4555 12.043 16.4573 12.122 16.4754 12.198C16.4934 12.2741 16.5273 12.3455 16.5749 12.4076L18.4024 14.8738ZM14.7961 15.1544L17.8311 15.6057C18.1624 15.6557 18.2142 15.5326 17.943 15.3319L15.4792 13.5051C15.4189 13.4575 15.3488 13.424 15.2739 13.4069C15.1991 13.3898 15.1214 13.3895 15.0464 13.406C14.9714 13.4226 14.901 13.4556 14.8403 13.5027C14.7797 13.5497 14.7302 13.6097 14.6955 13.6782L14.3649 14.4776C14.3409 14.5505 14.3335 14.6279 14.343 14.704C14.3526 14.7802 14.379 14.8533 14.4202 14.9181C14.4615 14.9828 14.5166 15.0376 14.5816 15.0785C14.6466 15.1194 14.7199 15.1453 14.7961 15.1544ZM17.8305 16.2538L14.7942 16.7057C14.7168 16.716 14.6425 16.7426 14.576 16.7836C14.5095 16.8247 14.4525 16.8793 14.4085 16.9438C14.3646 17.0084 14.3348 17.0815 14.321 17.1584C14.3072 17.2353 14.3098 17.3142 14.3286 17.3901C14.3286 17.3901 14.3467 17.4707 14.483 17.8013C14.6205 18.1313 14.6642 18.2007 14.6642 18.2007C14.7046 18.2676 14.7586 18.3253 14.8228 18.37C14.8869 18.4146 14.9598 18.4453 15.0366 18.4598C15.1134 18.4744 15.1924 18.4726 15.2685 18.4545C15.3445 18.4365 15.4159 18.4026 15.478 18.3551L17.9436 16.5276C18.2149 16.3276 18.163 16.2038 17.8305 16.2538ZM18.4024 16.9851L16.5761 19.4501C16.5285 19.5102 16.4948 19.5803 16.4776 19.6551C16.4604 19.7299 16.46 19.8076 16.4765 19.8826C16.493 19.9575 16.526 20.0279 16.5731 20.0885C16.6201 20.1492 16.6801 20.1986 16.7486 20.2332L17.548 20.5644C17.6209 20.5884 17.6982 20.5959 17.7743 20.5863C17.8504 20.5767 17.9234 20.5503 17.9881 20.509C18.0527 20.4678 18.1074 20.4126 18.1482 20.3476C18.1889 20.2826 18.2147 20.2094 18.2236 20.1332L18.6755 17.0982C18.7255 16.7663 18.6024 16.7144 18.4024 16.9851ZM19.7755 20.1357C19.7859 20.2131 19.8126 20.2874 19.8536 20.3538C19.8947 20.4202 19.9493 20.4772 20.0138 20.5211C20.0784 20.565 20.1515 20.5949 20.2283 20.6087C20.3052 20.6225 20.3841 20.62 20.4599 20.6013C20.4599 20.6013 20.5405 20.5832 20.8711 20.4469C21.2005 20.3094 21.2705 20.2657 21.2705 20.2657C21.3374 20.2253 21.3951 20.1713 21.4398 20.1072C21.4844 20.043 21.5151 19.9701 21.5296 19.8933C21.5442 19.8165 21.5424 19.7375 21.5243 19.6614C21.5063 19.5854 21.4724 19.514 21.4249 19.4519L19.5974 16.9851C19.3974 16.7144 19.273 16.7663 19.3236 17.0988L19.7755 20.1357ZM23.2036 16.7051L20.1686 16.2538C19.8374 16.2038 19.7855 16.3269 20.0555 16.5276L22.5205 18.3538C22.5806 18.4014 22.6506 18.4351 22.7254 18.4523C22.8001 18.4695 22.8778 18.4699 22.9527 18.4534C23.0276 18.4369 23.0979 18.4039 23.1585 18.3568C23.2191 18.3098 23.2685 18.2498 23.303 18.1813L23.6349 17.3819C23.6588 17.309 23.6663 17.2316 23.6567 17.1554C23.6471 17.0793 23.6207 17.0061 23.5795 16.9414C23.5382 16.8766 23.4831 16.8218 23.4181 16.781C23.3531 16.7401 23.2799 16.7142 23.2036 16.7051ZM20.168 15.6057L23.2055 15.1538C23.2829 15.1434 23.3573 15.1167 23.4238 15.0756C23.4902 15.0345 23.5473 14.9799 23.5912 14.9152C23.6351 14.8506 23.665 14.7775 23.6787 14.7005C23.6925 14.6236 23.6899 14.5447 23.6711 14.4688C23.6711 14.4688 23.653 14.3888 23.5167 14.0582C23.3792 13.7282 23.3355 13.6588 23.3355 13.6588C23.2952 13.5918 23.2412 13.534 23.1771 13.4893C23.1129 13.4446 23.04 13.4139 22.9632 13.3994C22.8864 13.3848 22.8073 13.3866 22.7312 13.4047C22.6552 13.4228 22.5838 13.4568 22.5217 13.5044L20.0549 15.3319C19.7849 15.5319 19.8367 15.6557 20.168 15.6057ZM19.5974 14.8738L21.4236 12.4094C21.4713 12.3492 21.5049 12.2792 21.5221 12.2044C21.5394 12.1296 21.5397 12.0519 21.5232 11.9769C21.5067 11.902 21.4737 11.8316 21.4267 11.771C21.3796 11.7103 21.3196 11.6609 21.2511 11.6263L20.4517 11.2951C20.3788 11.2711 20.3014 11.2637 20.2252 11.2732C20.1491 11.2828 20.076 11.3092 20.0112 11.3504C19.9464 11.3917 19.8917 11.4468 19.8508 11.5118C19.8099 11.5768 19.784 11.6501 19.7749 11.7263L19.3242 14.7607C19.2736 15.0932 19.3974 15.1451 19.5974 14.8738ZM6.90799 25.2307C7.03236 25.4001 7.10924 25.3682 7.07799 25.1594L6.79549 23.2619C6.78902 23.2135 6.7724 23.167 6.74673 23.1254C6.72106 23.0838 6.68691 23.0481 6.64651 23.0206C6.60611 22.9931 6.56036 22.9745 6.51226 22.9659C6.46416 22.9573 6.41479 22.9589 6.36736 22.9707C6.36736 22.9707 6.31799 22.9826 6.11111 23.0669C6.02586 23.0998 5.94259 23.1375 5.86174 23.1801C5.81983 23.2052 5.78371 23.2389 5.75578 23.279C5.72785 23.3191 5.70874 23.3646 5.6997 23.4126C5.69067 23.4606 5.69191 23.51 5.70336 23.5575C5.71481 23.605 5.7362 23.6496 5.76611 23.6882L6.90799 25.2307ZM4.65361 25.4057L6.54986 25.6882C6.75924 25.7201 6.79049 25.6426 6.62174 25.5176L5.07986 24.3763C5.04225 24.3464 4.99843 24.3253 4.95161 24.3145C4.90478 24.3037 4.85614 24.3035 4.80924 24.3139C4.76233 24.3244 4.71835 24.3451 4.6805 24.3747C4.64265 24.4044 4.6119 24.442 4.59049 24.4851L4.38299 24.9838C4.36837 25.0294 4.36401 25.0777 4.37022 25.1252C4.37643 25.1727 4.39306 25.2182 4.41892 25.2585C4.44478 25.2988 4.47923 25.3329 4.5198 25.3583C4.56037 25.3838 4.60607 25.4 4.65361 25.4057ZM4.45736 27.0588C4.54361 27.2663 4.57111 27.3094 4.57111 27.3094C4.59622 27.3513 4.62993 27.3875 4.67002 27.4154C4.71011 27.4433 4.75566 27.4624 4.80368 27.4715C4.8517 27.4805 4.90108 27.4793 4.94858 27.4678C4.99608 27.4564 5.04061 27.435 5.07924 27.4051L6.62236 26.2632C6.79111 26.1388 6.75861 26.0613 6.55049 26.0926L4.65236 26.3751C4.60393 26.3817 4.55744 26.3985 4.51589 26.4242C4.47434 26.45 4.43865 26.4842 4.41115 26.5246C4.38364 26.565 4.36491 26.6107 4.35619 26.6588C4.34746 26.7069 4.34893 26.7563 4.36049 26.8038C4.36049 26.8038 4.37236 26.8532 4.45736 27.0588ZM6.90799 26.5501L5.76611 28.0919C5.73611 28.1294 5.7149 28.1732 5.70405 28.22C5.69319 28.2668 5.69298 28.3155 5.70341 28.3624C5.71385 28.4093 5.73467 28.4532 5.76434 28.491C5.79401 28.5288 5.83178 28.5594 5.87486 28.5807L6.37361 28.7876C6.57611 28.8469 6.76486 28.7251 6.79611 28.5182L7.07861 26.6213C7.10986 26.4126 7.03299 26.3807 6.90799 26.5501ZM7.76611 28.5188C7.79736 28.7263 7.98924 28.8582 8.19424 28.8101C8.19424 28.8101 8.24361 28.7982 8.44924 28.7138C8.65674 28.6282 8.69986 28.6007 8.69986 28.6007C8.74178 28.5756 8.77789 28.5419 8.80582 28.5018C8.83375 28.4617 8.85286 28.4161 8.8619 28.3681C8.87094 28.3201 8.86969 28.2707 8.85824 28.2232C8.84679 28.1757 8.82541 28.1312 8.79549 28.0926L7.65361 26.5501C7.52924 26.3807 7.45111 26.4132 7.48236 26.6213L7.76611 28.5188ZM9.90861 26.3751L8.01236 26.0926C7.80299 26.0613 7.77174 26.1388 7.94049 26.2632L9.48236 27.4051C9.51987 27.4349 9.5636 27.4561 9.61033 27.4668C9.65706 27.4776 9.70561 27.4778 9.75243 27.4674C9.79924 27.4569 9.84312 27.4362 9.88086 27.4066C9.91859 27.377 9.94922 27.3393 9.97049 27.2963L10.178 26.7976C10.1929 26.752 10.1976 26.7037 10.1916 26.6561C10.1856 26.6086 10.1692 26.5629 10.1434 26.5225C10.1176 26.4821 10.0832 26.4479 10.0426 26.4224C10.002 26.3969 9.95622 26.3807 9.90861 26.3751ZM8.01236 25.6888L9.90861 25.4057C9.95715 25.3994 10.0038 25.3829 10.0455 25.3573C10.0872 25.3317 10.123 25.2975 10.1506 25.2571C10.1781 25.2166 10.1968 25.1708 10.2054 25.1227C10.214 25.0745 10.2124 25.025 10.2005 24.9776C10.2005 24.9776 10.1886 24.9276 10.1036 24.7219C10.0186 24.5151 9.99111 24.4719 9.99111 24.4719C9.966 24.43 9.93229 24.3939 9.8922 24.366C9.85212 24.338 9.80656 24.3189 9.75855 24.3099C9.71053 24.3009 9.66115 24.3021 9.61365 24.3136C9.56615 24.325 9.52162 24.3464 9.48299 24.3763L7.93986 25.5176C7.77174 25.6426 7.80299 25.7201 8.01236 25.6888ZM7.65424 25.2307L8.79611 23.6894C8.82612 23.6519 8.84733 23.6081 8.85818 23.5613C8.86903 23.5145 8.86925 23.4659 8.85882 23.419C8.84838 23.3721 8.82756 23.3281 8.79789 23.2904C8.76822 23.2526 8.73045 23.2219 8.68736 23.2007L8.18861 22.9932C8.14302 22.9783 8.0947 22.9738 8.04713 22.9799C7.99956 22.9859 7.95394 23.0025 7.91353 23.0283C7.87313 23.0541 7.83895 23.0886 7.81346 23.1292C7.78797 23.1698 7.7718 23.2156 7.76611 23.2632L7.48361 25.1594C7.45111 25.3682 7.52924 25.4001 7.65424 25.2307ZM30.3455 25.2307C30.4699 25.4001 30.5467 25.3682 30.5155 25.1594L30.233 23.2619C30.2265 23.2135 30.2099 23.167 30.1842 23.1254C30.1586 23.0838 30.1244 23.0481 30.084 23.0206C30.0436 22.9931 29.9979 22.9745 29.9498 22.9659C29.9017 22.9573 29.8523 22.9589 29.8049 22.9707C29.8049 22.9707 29.7555 22.9826 29.5486 23.0669C29.4634 23.0998 29.3801 23.1375 29.2992 23.1801C29.2573 23.2052 29.2212 23.2389 29.1933 23.279C29.1654 23.3191 29.1462 23.3646 29.1372 23.4126C29.1282 23.4606 29.1294 23.51 29.1409 23.5575C29.1523 23.605 29.1737 23.6496 29.2036 23.6882L30.3455 25.2307ZM28.0911 25.4057L29.9874 25.6882C30.1967 25.7201 30.228 25.6426 30.0592 25.5176L28.5174 24.3763C28.4797 24.3464 28.4359 24.3253 28.3891 24.3145C28.3423 24.3037 28.2936 24.3035 28.2467 24.3139C28.1998 24.3244 28.1558 24.3451 28.118 24.3747C28.0802 24.4044 28.0494 24.442 28.028 24.4851L27.8205 24.9838C27.8059 25.0294 27.8015 25.0777 27.8077 25.1252C27.8139 25.1727 27.8306 25.2182 27.8564 25.2585C27.8823 25.2988 27.9167 25.3329 27.9573 25.3583C27.9979 25.3838 28.0436 25.4 28.0911 25.4057ZM27.8949 27.0588C27.9811 27.2663 28.0086 27.3094 28.0086 27.3094C28.0337 27.3513 28.0674 27.3875 28.1075 27.4154C28.1476 27.4433 28.1932 27.4624 28.2412 27.4715C28.2892 27.4805 28.3386 27.4793 28.3861 27.4678C28.4336 27.4564 28.4781 27.435 28.5167 27.4051L30.0599 26.2632C30.2286 26.1388 30.1961 26.0613 29.988 26.0926L28.0899 26.3751C28.0414 26.3817 27.9949 26.3985 27.9534 26.4242C27.9118 26.45 27.8762 26.4842 27.8486 26.5246C27.8211 26.565 27.8024 26.6107 27.7937 26.6588C27.785 26.7069 27.7864 26.7563 27.798 26.8038C27.798 26.8038 27.8099 26.8532 27.8949 27.0588ZM30.3455 26.5501L29.2036 28.0919C29.1736 28.1294 29.1524 28.1732 29.1415 28.22C29.1307 28.2668 29.1305 28.3155 29.1409 28.3624C29.1513 28.4093 29.1722 28.4532 29.2018 28.491C29.2315 28.5288 29.2693 28.5594 29.3124 28.5807L29.8111 28.7876C30.0136 28.8469 30.2024 28.7251 30.2336 28.5182L30.5161 26.6213C30.5474 26.4126 30.4705 26.3807 30.3455 26.5501ZM31.2036 28.5188C31.2349 28.7263 31.4267 28.8582 31.6317 28.8101C31.6317 28.8101 31.6811 28.7982 31.8867 28.7138C32.0942 28.6282 32.1374 28.6007 32.1374 28.6007C32.1793 28.5756 32.2154 28.5419 32.2433 28.5018C32.2713 28.4617 32.2904 28.4161 32.2994 28.3681C32.3084 28.3201 32.3072 28.2707 32.2957 28.2232C32.2843 28.1757 32.2629 28.1312 32.233 28.0926L31.0911 26.5501C30.9667 26.3807 30.8886 26.4132 30.9199 26.6213L31.2036 28.5188ZM33.3461 26.3751L31.4499 26.0926C31.2405 26.0613 31.2092 26.1388 31.378 26.2632L32.9199 27.4051C32.9574 27.4349 33.0011 27.4561 33.0478 27.4668C33.0946 27.4776 33.1431 27.4778 33.1899 27.4674C33.2367 27.4569 33.2806 27.4362 33.3184 27.4066C33.3561 27.377 33.3867 27.3393 33.408 27.2963L33.6155 26.7976C33.6304 26.752 33.6351 26.7037 33.6291 26.6561C33.6231 26.6086 33.6067 26.5629 33.5809 26.5225C33.5551 26.4821 33.5207 26.4479 33.4801 26.4224C33.4395 26.3969 33.3937 26.3807 33.3461 26.3751ZM31.4499 25.6888L33.3461 25.4057C33.3946 25.3994 33.4413 25.3829 33.483 25.3573C33.5247 25.3317 33.5605 25.2975 33.5881 25.2571C33.6156 25.2166 33.6343 25.1708 33.6429 25.1227C33.6515 25.0745 33.6499 25.025 33.638 24.9776C33.638 24.9776 33.6261 24.9276 33.5411 24.7219C33.4561 24.5151 33.4286 24.4719 33.4286 24.4719C33.4035 24.43 33.3698 24.3939 33.3297 24.366C33.2896 24.338 33.2441 24.3189 33.196 24.3099C33.148 24.3009 33.0986 24.3021 33.0511 24.3136C33.0036 24.325 32.9591 24.3464 32.9205 24.3763L31.3774 25.5176C31.2092 25.6426 31.2405 25.7201 31.4499 25.6888ZM31.0917 25.2307L32.2336 23.6894C32.2636 23.6519 32.2848 23.6081 32.2957 23.5613C32.3065 23.5145 32.3068 23.4659 32.2963 23.419C32.2859 23.3721 32.2651 23.3281 32.2354 23.2904C32.2057 23.2526 32.1679 23.2219 32.1249 23.2007L31.6261 22.9932C31.5805 22.9783 31.5322 22.9738 31.4846 22.9799C31.4371 22.9859 31.3914 23.0025 31.351 23.0283C31.3106 23.0541 31.2764 23.0886 31.251 23.1292C31.2255 23.1698 31.2093 23.2156 31.2036 23.2632L30.9211 25.1594C30.8886 25.3682 30.9667 25.4001 31.0917 25.2307ZM32.7392 11.2426C32.7392 11.2426 37.7499 5.9688 37.7499 3.33255C37.7499 1.87693 36.5074 0.695679 34.9736 0.695679C33.8692 0.695679 32.923 1.31318 32.4767 2.20193C32.0305 1.31318 31.0836 0.695679 29.9786 0.695679C28.4461 0.695679 27.2036 1.87693 27.2036 3.33255C27.203 5.9688 32.7392 11.2426 32.7392 11.2426ZM5.78611 11.2426C5.78611 11.2426 10.7967 5.9688 10.7967 3.33255C10.7967 1.87693 9.55424 0.695679 8.02049 0.695679C6.91611 0.695679 5.96986 1.31318 5.52361 2.20193C5.07736 1.31318 4.13049 0.695679 3.02549 0.695679C1.49299 0.695679 0.250488 1.87693 0.250488 3.33255C0.249863 5.9688 5.78611 11.2426 5.78611 11.2426Z" fill="#222222"/>
</svg>
